<svg width="732" height="169" viewBox="0 0 732 169" fill="none" xmlns="http://www.w3.org/2000/svg">
<path d="M292.59 91.3785C292.59 85.4628 295.426 81.9783 300.855 81.9783C305.96 81.9783 307.661 85.6249 307.661 90.3251V115.527H319.169V89.0285C319.169 79.1419 313.983 72.0919 303.773 72.0919C297.695 72.0919 293.4 73.9556 289.673 78.0885C287.241 74.3608 283.108 72.0919 277.355 72.0919C271.277 72.0919 267.064 74.604 265.119 78.2506V73.0642H254.504V115.527H266.01V91.1354C266.01 85.4628 268.927 81.9783 274.275 81.9783C279.381 81.9783 281.083 85.6249 281.083 90.3251V115.527H292.59V91.3785Z" fill="#21004B"/>
<path d="M470.089 90.7887C470.089 84.873 472.819 81.3885 478.046 81.3885C482.961 81.3885 484.599 85.0351 484.599 89.7353V114.938H495.677V88.4387C495.677 78.5521 490.685 71.5021 480.855 71.5021C475.004 71.5021 470.869 73.3658 467.28 77.4987C464.939 73.771 460.961 71.5021 455.422 71.5021C449.571 71.5021 445.515 74.0142 443.642 77.6608V72.4745H433.423V114.938H444.5V90.5456C444.5 84.873 447.309 81.3885 452.457 81.3885C457.372 81.3885 459.011 85.0351 459.011 89.7353V114.938H470.089V90.7887Z" fill="#21004B"/>
<path d="M366.399 97.6183C366.399 97.6183 366.561 96.0787 366.561 94.2148C366.561 81.6541 358.053 72.0919 345.492 72.0919C332.932 72.0919 324.18 81.6541 324.18 94.2148C324.18 107.262 333.013 116.5 345.573 116.5C355.378 116.5 363.158 110.584 365.67 101.994H354.082C352.705 105.074 349.382 106.613 345.897 106.613C340.144 106.613 336.417 103.453 335.607 97.6183H366.399ZM345.412 81.33C350.76 81.33 354.245 84.5715 355.055 89.3526H335.768C336.74 84.4904 340.144 81.33 345.412 81.33Z" fill="#21004B"/>
<path d="M368.258 82.9506H373.363V115.527H384.869V73.0642H368.258V82.9506ZM379.116 67.5538C383.168 67.5538 386.085 64.7174 386.085 60.6656C386.085 56.6138 383.168 53.6965 379.116 53.6965C375.064 53.6965 372.147 56.6138 372.147 60.6656C372.147 64.7174 375.064 67.5538 379.116 67.5538Z" fill="#21004B"/>
<path d="M408.696 105.641C408.372 105.641 407.886 105.722 407.157 105.722C404.564 105.722 404.239 104.506 404.239 102.724V54.75H392.733V103.534C392.733 111.962 395.974 115.689 405.131 115.689C406.671 115.689 408.129 115.527 408.696 115.446V105.641Z" fill="#21004B"/>
<path d="M410.005 82.9506H415.111V115.527H426.618V73.0642H410.005V82.9506ZM420.865 67.5538C424.916 67.5538 427.833 64.7174 427.833 60.6656C427.833 56.6138 424.916 53.6965 420.865 53.6965C416.813 53.6965 413.895 56.6138 413.895 60.6656C413.895 64.7174 416.813 67.5538 420.865 67.5538Z" fill="#21004B"/>
<path d="M523.4 73.6544C529.422 73.6544 534.248 75.9486 537.573 79.6476C540.904 83.3523 542.753 88.4952 542.753 94.2238C542.753 94.6574 542.733 95.1954 542.713 95.629C542.708 95.7304 542.703 95.8257 542.698 95.9122H508.36L508.396 96.4454C508.686 100.716 510.222 104.52 512.826 107.261C515.436 110.008 519.094 111.66 523.561 111.66C529.946 111.66 534.923 108.047 536.872 102.989H541.832C539.295 110.335 532.779 115.847 523.481 115.847C517.097 115.847 512.152 113.393 508.796 109.545C505.434 105.689 503.642 100.403 503.642 94.7101C503.642 83.5025 511.333 73.6547 523.4 73.6544ZM523.4 77.8409C515.084 77.8412 509.559 83.8259 508.561 91.6486L508.49 92.212H538.047L537.997 91.6661C537.624 87.5968 536.083 84.1359 533.564 81.6896C531.041 79.2402 527.568 77.8409 523.4 77.8409Z" fill="#21004B" stroke="black"/>
<path d="M571.473 74.2974C571.656 74.2974 571.983 74.3161 572.279 74.3365C572.303 74.3381 572.327 74.3397 572.35 74.3414V78.773C572.321 78.7713 572.29 78.7698 572.259 78.7681C571.879 78.7476 571.363 78.7271 570.825 78.7271C567.202 78.7271 563.986 79.811 561.674 82.0484C559.359 84.2893 558.007 87.6314 558.007 92.0308V114.95H553.254V74.7027H557.764V80.6041L558.703 80.8433C560.164 78.1533 564.055 74.2974 571.473 74.2974Z" fill="#21004B" stroke="black"/>
<path d="M573.833 94.8668C573.833 106.131 581.612 116.423 594.172 116.423C605.355 116.423 611.838 108.967 613.458 100.782H607.624C605.922 107.184 601.222 111.236 594.172 111.236C585.502 111.236 579.667 104.348 579.667 94.8668C579.667 85.3046 585.502 78.4164 594.172 78.4164C601.222 78.4164 605.922 82.4682 607.624 88.8701H613.458C611.838 80.6855 605.355 73.2301 594.172 73.2301C581.612 73.2301 573.833 83.5218 573.833 94.8668Z" fill="#21004B"/>
<path d="M627.003 54.6727H621.25V115.45H627.003V91.0582C627.003 82.6304 632.432 78.2544 639.401 78.2544C646.775 78.2544 650.26 82.7925 650.26 90.2478V115.45H656.013V89.1134C656.013 79.9561 650.583 73.2301 640.373 73.2301C632.675 73.2301 628.462 77.4441 627.003 79.9561V54.6727Z" fill="#21004B"/>
<path d="M75 129.194L102.94 57.7049C106.878 47.6306 116.588 41 127.404 41H144.249L116.308 112.49C112.371 122.564 102.661 129.194 91.8448 129.194H75Z" fill="url(#paint0_linear_1_11)"/>
<path d="M115.99 129.195L143.93 57.7051C147.867 47.6308 157.577 41.0002 168.394 41.0002H185.238L157.298 112.49C153.361 122.564 143.65 129.195 132.834 129.195H115.99Z" fill="url(#paint1_linear_1_11)"/>
<path d="M156.982 129.195L184.922 57.7051C188.859 47.6308 198.569 41.0002 209.385 41.0002H226.231L198.29 112.49C194.352 122.564 184.642 129.195 173.826 129.195H156.982Z" fill="url(#paint2_linear_1_11)"/>
<defs>
<linearGradient id="paint0_linear_1_11" x1="226.231" y1="34.2635" x2="74.9973" y2="119.699" gradientUnits="userSpaceOnUse">
<stop stop-color="#FF5CAA"/>
<stop offset="1" stop-color="#FF4E62"/>
</linearGradient>
<linearGradient id="paint1_linear_1_11" x1="226.231" y1="34.2635" x2="74.9972" y2="119.699" gradientUnits="userSpaceOnUse">
<stop stop-color="#FF5CAA"/>
<stop offset="1" stop-color="#FF4E62"/>
</linearGradient>
<linearGradient id="paint2_linear_1_11" x1="226.231" y1="34.2635" x2="74.9972" y2="119.699" gradientUnits="userSpaceOnUse">
<stop stop-color="#FF5CAA"/>
<stop offset="1" stop-color="#FF4E62"/>
</linearGradient>
</defs>
</svg>
